<svg width="22" height="24" viewBox="0 0 22 24" fill="none" xmlns="http://www.w3.org/2000/svg">
<path d="M6.74375 21.6155C7.72502 22.8628 9.26655 23.6667 11 23.6667C12.7335 23.6667 14.275 22.8628 15.2563 21.6155C12.4308 21.9983 9.56917 21.9983 6.74375 21.6155Z" fill="currentColor"/>
<path d="M18.874 8.5V9.32145C18.874 10.3073 19.1553 11.271 19.6826 12.0913L20.9746 14.1013C22.1547 15.9373 21.2538 18.4329 19.2012 19.0135C13.8318 20.5323 8.1682 20.5323 2.79876 19.0135C0.746221 18.4329 -0.154706 15.9373 1.02542 14.1013L2.31743 12.0913C2.84467 11.271 3.12602 10.3073 3.12602 9.32145V8.5C3.12602 3.98967 6.65132 0.333332 11 0.333332C15.3487 0.333332 18.874 3.98967 18.874 8.5Z" fill="currentColor"/>
</svg>
