<svg width="25" height="25" viewBox="0 0 25 25" fill="none" xmlns="http://www.w3.org/2000/svg">
<path fill-rule="evenodd" clip-rule="evenodd" d="M20.775 21.0917C20.1334 20.5473 19.1666 20.5473 18.525 21.0917C17.8834 21.6361 16.9166 21.6361 16.275 21.0917C15.6334 20.5473 14.6666 20.5473 14.025 21.0917C13.3834 21.6361 12.4166 21.6361 11.775 21.0917C11.1334 20.5473 10.1666 20.5473 9.52502 21.0917C8.88344 21.6361 7.91661 21.6361 7.27502 21.0917C6.63344 20.5473 5.66661 20.5473 5.02502 21.0917C4.58911 21.4616 3.90002 21.1662 3.90002 20.6094V4.39059C3.90002 3.83383 4.58911 3.53842 5.02502 3.90832C5.66661 4.45274 6.63344 4.45274 7.27502 3.90832C7.91661 3.36389 8.88344 3.36389 9.52502 3.90832C10.1666 4.45274 11.1334 4.45274 11.775 3.90832C12.4166 3.36389 13.3834 3.36389 14.025 3.90832C14.6666 4.45274 15.6334 4.45274 16.275 3.90832C16.9166 3.36389 17.8834 3.36389 18.525 3.90832C19.1666 4.45274 20.1334 4.45274 20.775 3.90832C21.2109 3.53842 21.9 3.83383 21.9 4.39059V20.6094C21.9 21.1662 21.2109 21.4616 20.775 21.0917ZM7.65002 12.5C7.65002 12.0858 7.98581 11.75 8.40002 11.75H17.4C17.8142 11.75 18.15 12.0858 18.15 12.5C18.15 12.9142 17.8142 13.25 17.4 13.25H8.40002C7.98581 13.25 7.65002 12.9142 7.65002 12.5ZM8.40002 8.25C7.98581 8.25 7.65002 8.58579 7.65002 9C7.65002 9.41421 7.98581 9.75 8.40002 9.75H17.4C17.8142 9.75 18.15 9.41421 18.15 9C18.15 8.58579 17.8142 8.25 17.4 8.25H8.40002ZM7.65002 16C7.65002 15.5858 7.98581 15.25 8.40002 15.25H17.4C17.8142 15.25 18.15 15.5858 18.15 16C18.15 16.4142 17.8142 16.75 17.4 16.75H8.40002C7.98581 16.75 7.65002 16.4142 7.65002 16Z" fill="currentColor"/>
</svg>
