<svg width="20" height="20" viewBox="0 0 20 20" fill="none" xmlns="http://www.w3.org/2000/svg">
<path fill-rule="evenodd" clip-rule="evenodd" d="M6.33201 3.73888C6.55437 2.64732 7.52573 1.875 8.63861 1.875H11.3614C12.4743 1.875 13.4456 2.64732 13.668 3.73888C13.7193 3.99087 13.9476 4.17571 14.185 4.17571H14.1987L14.2123 4.17631C15.3818 4.22745 16.2801 4.37097 17.0301 4.86298C17.5026 5.17297 17.9091 5.57181 18.2258 6.0372C18.6199 6.61622 18.7937 7.28079 18.877 8.08454C18.9583 8.86983 18.9583 9.85417 18.9583 11.1009V11.1719C18.9583 12.4186 18.9583 13.4029 18.877 14.1882C18.7937 14.9919 18.6199 15.6565 18.2258 16.2355C17.9091 16.7009 17.5026 17.0998 17.0301 17.4097C16.4439 17.7943 15.7718 17.9639 14.9567 18.0453C14.1586 18.125 13.1575 18.125 11.8862 18.125H8.1138C6.84247 18.125 5.84138 18.125 5.04329 18.0453C4.22815 17.9639 3.55608 17.7943 2.96986 17.4097C2.49734 17.0998 2.09087 16.7009 1.77415 16.2355C1.38009 15.6565 1.20629 14.9919 1.12301 14.1882C1.04164 13.4029 1.04165 12.4186 1.04166 11.1718V11.1009C1.04165 9.85417 1.04164 8.86983 1.12301 8.08454C1.20629 7.28079 1.38009 6.61622 1.77415 6.0372C2.09087 5.57181 2.49734 5.17297 2.96986 4.86298C3.71985 4.37097 4.61816 4.22745 5.78768 4.17631L5.80133 4.17571H5.81499C6.05239 4.17571 6.28068 3.99087 6.33201 3.73888ZM8.63861 3.125C8.10434 3.125 7.65753 3.49416 7.55686 3.98839C7.39381 4.78883 6.68416 5.41822 5.83027 5.42565C4.70643 5.47558 4.10446 5.61363 3.65552 5.90815C3.31923 6.12876 3.03125 6.41175 2.80754 6.74047C2.57741 7.07862 2.43912 7.51104 2.36635 8.21337C2.29244 8.92672 2.29166 9.84634 2.29166 11.1364C2.29166 12.4264 2.29244 13.346 2.36635 14.0594C2.43912 14.7617 2.57741 15.1941 2.80754 15.5323C3.03125 15.861 3.31923 16.144 3.65552 16.3646C4.00346 16.5928 4.44869 16.7297 5.16752 16.8015C5.89623 16.8743 6.83494 16.875 8.14814 16.875H11.8518C13.165 16.875 14.1038 16.8743 14.8325 16.8015C15.5513 16.7297 15.9965 16.5928 16.3445 16.3646C16.6807 16.144 16.9687 15.861 17.1924 15.5323C17.4226 15.1941 17.5609 14.7617 17.6336 14.0594C17.7075 13.346 17.7083 12.4264 17.7083 11.1364C17.7083 9.84634 17.7075 8.92672 17.6336 8.21337C17.5609 7.51104 17.4226 7.07862 17.1924 6.74047C16.9687 6.41175 16.6807 6.12876 16.3445 5.90815C15.8955 5.61363 15.2936 5.47558 14.1697 5.42565C13.3158 5.41822 12.6062 4.78883 12.4431 3.98839C12.3424 3.49416 11.8956 3.125 11.3614 3.125H8.63861ZM9.99999 8.95833C8.96446 8.95833 8.12499 9.7978 8.12499 10.8333C8.12499 11.8689 8.96446 12.7083 9.99999 12.7083C11.0355 12.7083 11.875 11.8689 11.875 10.8333C11.875 9.7978 11.0355 8.95833 9.99999 8.95833ZM6.87499 10.8333C6.87499 9.10744 8.2741 7.70833 9.99999 7.70833C11.7259 7.70833 13.125 9.10744 13.125 10.8333C13.125 12.5592 11.7259 13.9583 9.99999 13.9583C8.2741 13.9583 6.87499 12.5592 6.87499 10.8333ZM14.375 8.33333C14.375 7.98816 14.6548 7.70833 15 7.70833H15.8333C16.1785 7.70833 16.4583 7.98816 16.4583 8.33333C16.4583 8.67851 16.1785 8.95833 15.8333 8.95833H15C14.6548 8.95833 14.375 8.67851 14.375 8.33333Z" fill="#013065"/>
</svg>
