<svg width="25" height="25" viewBox="0 0 25 25" fill="none" xmlns="http://www.w3.org/2000/svg">
<path fill-rule="evenodd" clip-rule="evenodd" d="M8.51799 3.75089C8.79868 3.15917 9.40156 2.75 10.1 2.75H14.1C14.7985 2.75 15.4013 3.15917 15.682 3.75089C16.3655 3.75586 16.8983 3.78724 17.3738 3.97309C17.942 4.19516 18.4362 4.57266 18.7999 5.06242C19.1668 5.5565 19.3391 6.18979 19.5762 7.06144L20.3181 9.78272L20.5985 10.624C20.6065 10.6339 20.6144 10.6438 20.6222 10.6539C21.5231 11.8076 21.0941 13.5235 20.2362 16.9553C19.6905 19.138 19.4177 20.2293 18.6039 20.8647C17.7901 21.5001 16.6652 21.5001 14.4153 21.5001H9.78462C7.53477 21.5001 6.40984 21.5001 5.59606 20.8647C4.78227 20.2293 4.50944 19.138 3.96377 16.9553C3.10582 13.5235 2.67684 11.8076 3.57768 10.6539C3.58556 10.6438 3.59351 10.6338 3.60152 10.6239L3.8819 9.78271L4.62384 7.06145C4.86092 6.1898 5.03317 5.5565 5.4001 5.06242C5.76381 4.57266 6.25803 4.19516 6.82621 3.9731C7.30175 3.78724 7.83448 3.75586 8.51799 3.75089ZM8.51951 5.25231C7.85764 5.259 7.59205 5.28427 7.37224 5.37018C7.0663 5.48976 6.80018 5.69303 6.60433 5.95674C6.42822 6.19388 6.32489 6.5252 6.03399 7.59206L5.46443 9.68091C6.48452 9.50012 7.87753 9.50012 9.78462 9.50012H14.4153C16.3224 9.50012 17.7155 9.50012 18.7356 9.68092L18.166 7.59206C17.8751 6.5252 17.7718 6.19388 17.5957 5.95674C17.3998 5.69303 17.1337 5.48976 16.8278 5.37018C16.608 5.28427 16.3424 5.259 15.6805 5.25231C15.3992 5.8423 14.7972 6.25 14.1 6.25H10.1C9.40282 6.25 8.80085 5.8423 8.51951 5.25231Z" fill="currentColor"/>
</svg>
