<svg width="25" height="25" viewBox="0 0 25 25" fill="none" xmlns="http://www.w3.org/2000/svg">
<path fill-rule="evenodd" clip-rule="evenodd" d="M2.50002 7.13415C2.50002 4.57478 4.57479 2.5 7.13416 2.5C9.69353 2.5 11.7683 4.57478 11.7683 7.13415C11.7683 9.69352 9.69353 11.7683 7.13416 11.7683C4.57479 11.7683 2.50002 9.69352 2.50002 7.13415Z" fill="currentColor"/>
<path fill-rule="evenodd" clip-rule="evenodd" d="M13.2317 17.8659C13.2317 15.3065 15.3065 13.2317 17.8659 13.2317C20.4252 13.2317 22.5 15.3065 22.5 17.8659C22.5 20.4252 20.4252 22.5 17.8659 22.5C15.3065 22.5 13.2317 20.4252 13.2317 17.8659Z" fill="currentColor"/>
<path d="M2.50002 18C2.50002 15.8787 2.50002 14.818 3.15903 14.159C3.81803 13.5 4.8787 13.5 7.00002 13.5C9.12134 13.5 10.182 13.5 10.841 14.159C11.5 14.818 11.5 15.8787 11.5 18C11.5 20.1213 11.5 21.182 10.841 21.841C10.182 22.5 9.12134 22.5 7.00002 22.5C4.8787 22.5 3.81803 22.5 3.15903 21.841C2.50002 21.182 2.50002 20.1213 2.50002 18Z" fill="currentColor"/>
<path d="M13.5 7C13.5 4.87868 13.5 3.81802 14.159 3.15901C14.818 2.5 15.8787 2.5 18 2.5C20.1213 2.5 21.182 2.5 21.841 3.15901C22.5 3.81802 22.5 4.87868 22.5 7C22.5 9.12132 22.5 10.182 21.841 10.841C21.182 11.5 20.1213 11.5 18 11.5C15.8787 11.5 14.818 11.5 14.159 10.841C13.5 10.182 13.5 9.12132 13.5 7Z" fill="currentColor"/>
</svg>
