<svg width="12" height="13" viewBox="0 0 12 13" fill="none" xmlns="http://www.w3.org/2000/svg">
<path fill-rule="evenodd" clip-rule="evenodd" d="M3.25587 2.51704C3.41312 2.38226 3.64985 2.40047 3.78464 2.55772L6.78464 6.05772C6.90501 6.19815 6.90501 6.40538 6.78464 6.54581L3.78464 10.0458C3.64985 10.2031 3.41312 10.2213 3.25587 10.0865C3.09862 9.9517 3.08041 9.71496 3.21519 9.55772L6.00601 6.30176L3.21519 3.04581C3.08041 2.88856 3.09862 2.65183 3.25587 2.51704ZM5.25597 2.5171C5.41321 2.38231 5.64995 2.40052 5.78473 2.55777L8.78473 6.05777C8.90511 6.1982 8.90511 6.40543 8.78473 6.54586L5.78473 10.0459C5.64995 10.2031 5.41321 10.2213 5.25597 10.0865C5.09872 9.95175 5.08051 9.71502 5.21529 9.55777L8.00611 6.30182L5.21529 3.04586C5.08051 2.88862 5.09872 2.65188 5.25597 2.5171Z"/>
</svg>
