<svg width="18" height="18" viewBox="0 0 18 18" fill="none" xmlns="http://www.w3.org/2000/svg">
<g clip-path="url(#clip0_12_546)">
<path d="M-11 9C-11 11.6264 -10.4827 14.2272 -9.47759 16.6537C-8.4725 19.0802 -6.99931 21.285 -5.14213 23.1421C-3.28496 24.9993 -1.08018 26.4725 1.34633 27.4776C3.77284 28.4827 6.37356 29 9 29C11.6264 29 14.2272 28.4827 16.6537 27.4776C19.0802 26.4725 21.285 24.9993 23.1421 23.1421C24.9993 21.285 26.4725 19.0802 27.4776 16.6537C28.4827 14.2272 29 11.6264 29 9C29 6.37356 28.4827 3.77284 27.4776 1.34633C26.4725 -1.08018 24.9993 -3.28496 23.1421 -5.14214C21.285 -6.99931 19.0802 -8.4725 16.6537 -9.47759C14.2272 -10.4827 11.6264 -11 9 -11C6.37356 -11 3.77284 -10.4827 1.34633 -9.47759C-1.08018 -8.4725 -3.28496 -6.99931 -5.14213 -5.14214C-6.99931 -3.28496 -8.4725 -1.08018 -9.47759 1.34633C-10.4827 3.77284 -11 6.37356 -11 9Z" fill="#FFF1DC"/>
<path d="M15.2597 7.19839C15.1455 6.72719 14.7135 5.94371 14.2658 5.29902C14.0688 5.01585 13.6323 5.08524 13.5293 5.41542C13.3681 5.9258 13.1118 6.51229 12.6664 7.03946C12.5847 7.13571 12.4257 7.08647 12.4179 6.95999C12.3328 5.65382 11.7139 2.27703 7.34878 1.80247C7.0477 1.77001 6.81266 2.06213 6.91116 2.34866C7.24022 3.31122 7.50436 5.16135 5.99673 6.29515C5.93517 6.34104 5.8501 6.32537 5.80197 6.26605C5.29943 5.62584 4.67265 5.23298 3.82313 5.07405C3.52653 5.0192 3.27694 5.28894 3.34521 5.58331C3.47728 6.15077 3.53213 7.11893 2.99153 8.43741C2.08381 10.6479 1.03731 15.9868 9.36568 15.9868C17.6941 15.9868 15.4197 7.85987 15.2597 7.19839ZM5.53671 13.164C5.4732 13.2236 5.39855 13.27 5.31706 13.3007C5.23557 13.3314 5.14882 13.3456 5.0618 13.3427C4.97478 13.3398 4.88918 13.3198 4.80992 13.2837C4.73066 13.2477 4.65929 13.1964 4.5999 13.1327C3.49071 11.9463 3.97311 9.7335 4.03131 9.48503C4.11526 9.12911 4.4723 8.90749 4.82822 8.99256C4.91283 9.01244 4.99269 9.04881 5.06323 9.09957C5.13378 9.15033 5.19363 9.2145 5.23937 9.2884C5.2851 9.36231 5.31582 9.4445 5.32978 9.53028C5.34373 9.61607 5.34065 9.70376 5.3207 9.78835C5.21549 10.2405 5.03528 11.6575 5.56693 12.2272C5.81764 12.4947 5.80421 12.9144 5.53671 13.164Z" fill="#FC7032"/>
<path d="M15.1186 6.79098C14.9273 6.34216 14.6004 5.78142 14.2658 5.29902C14.0688 5.01585 13.6323 5.08524 13.5293 5.41542C13.3681 5.9258 13.1118 6.51229 12.6664 7.03946C12.5847 7.13571 12.4257 7.08647 12.4179 6.95999C12.3328 5.65382 11.7139 2.27703 7.34878 1.80247C7.0477 1.77001 6.81266 2.06213 6.91115 2.34866C7.24021 3.31122 7.50436 5.16135 5.99672 6.29515C5.93516 6.34104 5.8501 6.32537 5.80197 6.26605C5.29943 5.62584 4.67264 5.23298 3.82313 5.07405C3.52653 5.0192 3.27693 5.28894 3.34521 5.58331C3.47728 6.15077 3.53212 7.11892 2.99152 8.43741C2.19909 10.367 1.30257 14.6784 6.62351 15.745C11.2539 15.2872 14.9004 11.4874 15.1186 6.79098ZM5.53671 13.164C5.47319 13.2236 5.39855 13.27 5.31706 13.3007C5.23556 13.3314 5.14882 13.3456 5.0618 13.3427C4.97477 13.3398 4.88918 13.3198 4.80992 13.2837C4.73066 13.2477 4.65929 13.1964 4.59989 13.1327C3.49071 11.9463 3.97311 9.7335 4.03131 9.48503C4.11526 9.12911 4.4723 8.90749 4.82822 8.99256C4.91283 9.01244 4.99268 9.0488 5.06323 9.09957C5.13378 9.15033 5.19363 9.2145 5.23936 9.2884C5.2851 9.3623 5.31582 9.4445 5.32978 9.53028C5.34373 9.61606 5.34065 9.70376 5.32069 9.78835C5.21548 10.2405 5.03528 11.6575 5.56693 12.2272C5.81764 12.4947 5.80421 12.9144 5.53671 13.164Z" fill="#FF7C33"/>
<path d="M12.1804 5.59338C11.7472 4.08127 10.5675 2.15279 7.34743 1.80247C7.04635 1.77001 6.81131 2.06213 6.9098 2.34866C7.23886 3.31122 7.50301 5.16135 5.99537 6.29515C5.93381 6.34104 5.84875 6.32537 5.80062 6.26605C5.29808 5.62584 4.67129 5.23298 3.82178 5.07405C3.52518 5.0192 3.27558 5.28894 3.34386 5.58331C3.47593 6.15077 3.53077 7.11892 2.99017 8.43741C2.59396 9.4022 2.17088 10.9636 2.51449 12.4175C2.70924 12.4298 2.90399 12.4376 3.1021 12.4376C3.45019 12.4376 3.79268 12.4175 4.13069 12.3805C3.65501 11.1885 3.98295 9.68873 4.02996 9.48615C4.11391 9.13023 4.47095 8.90861 4.82687 8.99368C4.91148 9.01356 4.99133 9.04992 5.06188 9.10069C5.13243 9.15145 5.19228 9.21561 5.23801 9.28952C5.28375 9.36342 5.31447 9.44562 5.32843 9.5314C5.34238 9.61718 5.3393 9.70488 5.31934 9.78947C5.21973 10.2181 5.05408 11.5131 5.48947 12.1309C8.71628 11.2904 11.2671 8.78773 12.1804 5.59338Z" fill="#FF8D4D"/>
<path d="M7.34742 1.80247C7.04634 1.77001 6.81129 2.06213 6.90979 2.34866C7.23885 3.31122 7.50299 5.16135 5.99536 6.29515C5.9338 6.34104 5.84873 6.32537 5.80061 6.26605C5.29806 5.62584 4.67128 5.23298 3.82176 5.07405C3.52516 5.0192 3.27557 5.28894 3.34384 5.58331C3.47591 6.15077 3.53076 7.11892 2.99016 8.43741C2.93403 8.57572 2.88103 8.71529 2.83122 8.85601C6.10616 8.10946 8.73417 5.66389 9.73367 2.49305C9.10017 2.15615 8.31669 1.90768 7.34742 1.80247Z" fill="#FFA56A"/>
</g>
<defs>
<clipPath id="clip0_12_546">
<rect width="18" height="18" rx="9" fill="white"/>
</clipPath>
</defs>
</svg>
