<svg width="10" height="11" viewBox="0 0 10 11" fill="none" xmlns="http://www.w3.org/2000/svg">
<g clip-path="url(#clip0_12_371)">
<path d="M-3.37364 5.30164C-3.37364 6.4013 -3.15705 7.4902 -2.73623 8.50615C-2.3154 9.52211 -1.69859 10.4452 -0.921017 11.2228C-0.143439 12.0004 0.77968 12.6172 1.79563 13.038C2.81159 13.4588 3.90048 13.6754 5.00014 13.6754C6.09981 13.6754 7.1887 13.4588 8.20465 13.038C9.22061 12.6172 10.1437 12.0004 10.9213 11.2228C11.6989 10.4452 12.3157 9.52211 12.7365 8.50615C13.1573 7.4902 13.3739 6.4013 13.3739 5.30164C13.3739 4.20198 13.1573 3.11309 12.7365 2.09713C12.3157 1.08118 11.6989 0.15806 10.9213 -0.619518C10.1437 -1.3971 9.22061 -2.0139 8.20465 -2.43473C7.1887 -2.85555 6.09981 -3.07214 5.00014 -3.07214C3.90048 -3.07214 2.81159 -2.85555 1.79563 -2.43473C0.77968 -2.0139 -0.143439 -1.3971 -0.921017 -0.619518C-1.69859 0.15806 -2.3154 1.08118 -2.73623 2.09713C-3.15705 3.11309 -3.37364 4.20198 -3.37364 5.30164Z" fill="#FFF1DC"/>
<path d="M8.47753 4.30075C8.41411 4.03897 8.17409 3.6037 7.92536 3.24554C7.81593 3.08822 7.57342 3.12678 7.51622 3.31021C7.42667 3.59375 7.28428 3.91958 7.0368 4.21245C6.99141 4.26593 6.90311 4.23857 6.89876 4.1683C6.8515 3.44265 6.50764 1.56666 4.08259 1.30301C3.91532 1.28498 3.78474 1.44727 3.83946 1.60645C4.02227 2.14121 4.16902 3.16906 3.33145 3.79895C3.29725 3.82444 3.24999 3.81574 3.22325 3.78278C2.94406 3.42711 2.59585 3.20885 2.12389 3.12056C1.95912 3.09009 1.82045 3.23994 1.85838 3.40348C1.93176 3.71874 1.96222 4.2566 1.66189 4.98909C1.1576 6.21716 0.576215 9.18319 5.20309 9.18319C9.82996 9.18319 8.56645 4.66824 8.47753 4.30075ZM3.07588 7.61499C3.0406 7.64808 2.99913 7.67388 2.95385 7.69092C2.90858 7.70795 2.86039 7.71589 2.81204 7.71427C2.7637 7.71266 2.71614 7.70152 2.67211 7.68149C2.62808 7.66147 2.58843 7.63295 2.55543 7.59758C1.93922 6.93846 2.20722 5.70915 2.23955 5.5711C2.28619 5.37337 2.48454 5.25025 2.68228 5.29751C2.72928 5.30855 2.77365 5.32876 2.81284 5.35696C2.85203 5.38516 2.88528 5.42081 2.91069 5.46186C2.9361 5.50292 2.95317 5.54859 2.96092 5.59624C2.96867 5.6439 2.96696 5.69262 2.95587 5.73961C2.89742 5.99082 2.79731 6.77803 3.09267 7.09453C3.23196 7.24315 3.22449 7.47632 3.07588 7.61499Z" fill="#FC7032"/>
<path d="M8.39944 4.07441C8.29311 3.82507 8.11154 3.51354 7.92562 3.24554C7.81618 3.08822 7.57368 3.12678 7.51647 3.31021C7.42693 3.59375 7.28454 3.91958 7.03706 4.21245C6.99167 4.26593 6.90337 4.23857 6.89902 4.1683C6.85176 3.44265 6.5079 1.56666 4.08285 1.30301C3.91558 1.28498 3.785 1.44727 3.83972 1.60645C4.02253 2.14121 4.16928 3.16906 3.3317 3.79895C3.2975 3.82444 3.25025 3.81574 3.22351 3.78278C2.94432 3.42711 2.59611 3.20885 2.12415 3.12056C1.95937 3.09009 1.82071 3.23994 1.85864 3.40348C1.93201 3.71874 1.96248 4.2566 1.66215 4.98909C1.22191 6.06109 0.723841 8.45629 3.67992 9.04887C6.25234 8.79456 8.27819 6.68352 8.39944 4.07441ZM3.07614 7.61499C3.04085 7.64807 2.99939 7.67388 2.95411 7.69091C2.90884 7.70795 2.86065 7.71589 2.8123 7.71427C2.76396 7.71265 2.7164 7.70151 2.67237 7.68149C2.62833 7.66146 2.58868 7.63295 2.55569 7.59758C1.93948 6.93846 2.20747 5.70914 2.23981 5.5711C2.28644 5.37337 2.4848 5.25025 2.68254 5.29751C2.72954 5.30855 2.77391 5.32876 2.8131 5.35696C2.85229 5.38516 2.88554 5.42081 2.91095 5.46186C2.93636 5.50292 2.95343 5.54858 2.96118 5.59624C2.96893 5.6439 2.96722 5.69262 2.95613 5.73961C2.89768 5.99082 2.79757 6.77803 3.09293 7.09453C3.23221 7.24314 3.22475 7.47632 3.07614 7.61499Z" fill="#FF7C33"/>
<path d="M6.767 3.40908C6.52636 2.56901 5.87098 1.49764 4.08203 1.30301C3.91477 1.28498 3.78419 1.44727 3.83891 1.60645C4.02172 2.14121 4.16846 3.16906 3.33089 3.79895C3.29669 3.82444 3.24943 3.81574 3.22269 3.78278C2.9435 3.42711 2.59529 3.20885 2.12334 3.12056C1.95856 3.09009 1.8199 3.23994 1.85783 3.40348C1.9312 3.71874 1.96167 4.2566 1.66133 4.98909C1.44121 5.52509 1.20617 6.39251 1.39707 7.20024C1.50526 7.20708 1.61345 7.21143 1.72351 7.21143C1.9169 7.21143 2.10717 7.20024 2.29496 7.17972C2.03069 6.5175 2.21288 5.68427 2.23899 5.57173C2.28563 5.37399 2.48399 5.25087 2.68172 5.29813C2.72872 5.30918 2.77309 5.32938 2.81228 5.35758C2.85147 5.38578 2.88473 5.42143 2.91013 5.46249C2.93554 5.50354 2.95261 5.54921 2.96036 5.59686C2.96812 5.64452 2.9664 5.69324 2.95532 5.74023C2.89998 5.97839 2.80795 6.69782 3.04983 7.04106C4.8425 6.57408 6.25961 5.18372 6.767 3.40908Z" fill="#FF8D4D"/>
<path d="M4.08195 1.30301C3.91468 1.28498 3.7841 1.44727 3.83882 1.60645C4.02163 2.14121 4.16838 3.16906 3.3308 3.79895C3.2966 3.82444 3.24935 3.81574 3.22261 3.78278C2.94342 3.42711 2.5952 3.20885 2.12325 3.12056C1.95847 3.09009 1.81981 3.23994 1.85774 3.40348C1.93111 3.71874 1.96158 4.2566 1.66125 4.98909C1.63007 5.06593 1.60063 5.14347 1.57295 5.22165C3.39236 4.8069 4.85237 3.44825 5.40764 1.68667C5.0557 1.4995 4.62043 1.36146 4.08195 1.30301Z" fill="#FFA56A"/>
</g>
<defs>
<clipPath id="clip0_12_371">
<rect y="0.301758" width="10" height="10" rx="5" fill="white"/>
</clipPath>
</defs>
</svg>
