<svg width="25" height="25" viewBox="0 0 25 25" fill="none" xmlns="http://www.w3.org/2000/svg">
<path fill-rule="evenodd" clip-rule="evenodd" d="M3.21921 8.32274C2.70001 9.27128 2.70001 10.4155 2.70001 12.7039V14.225C2.70001 18.1258 2.70001 20.0763 3.87159 21.2881C5.04316 22.5 6.92878 22.5 10.7 22.5H14.7C18.4712 22.5 20.3569 22.5 21.5284 21.2881C22.7 20.0763 22.7 18.1258 22.7 14.225V12.7039C22.7 10.4155 22.7 9.27128 22.1808 8.32274C21.6616 7.37421 20.7131 6.78551 18.816 5.60812L16.816 4.36687C14.8106 3.12229 13.8079 2.5 12.7 2.5C11.5921 2.5 10.5894 3.12229 8.58404 4.36687L6.58405 5.60813C4.68696 6.78551 3.73841 7.37421 3.21921 8.32274ZM10.1466 15.8975C9.81386 15.6508 9.34414 15.7206 9.09749 16.0534C8.85083 16.3862 8.92063 16.8559 9.2534 17.1025C10.2258 17.8233 11.415 18.25 12.7 18.25C13.985 18.25 15.1742 17.8233 16.1466 17.1025C16.4794 16.8559 16.5492 16.3862 16.3025 16.0534C16.0559 15.7206 15.5862 15.6508 15.2534 15.8975C14.5251 16.4373 13.6459 16.75 12.7 16.75C11.7541 16.75 10.875 16.4373 10.1466 15.8975Z" fill="currentColor"/>
</svg>
