<svg width="24" height="25" viewBox="0 0 24 25" fill="none" xmlns="http://www.w3.org/2000/svg">
<path d="M20.2696 16.5667L20.9752 12.4869C21.1514 11.468 20.3678 10.536 19.3348 10.536H14.1537C13.6402 10.536 13.2492 10.075 13.3323 9.56774L13.995 5.52318C14.1026 4.86611 14.0719 4.19376 13.9047 3.54928C13.7662 3.0154 13.3543 2.58671 12.8126 2.41268L12.6676 2.36611C12.3402 2.26094 11.9829 2.28541 11.6742 2.43415C11.3344 2.59787 11.0859 2.89649 10.9938 3.25165L10.5181 5.0855C10.3667 5.66899 10.1462 6.23221 9.86195 6.76437C9.4466 7.54193 8.80441 8.16422 8.13688 8.73945L6.69814 9.97924C6.29248 10.3288 6.07945 10.8523 6.12561 11.3862L6.93777 20.7788C7.01227 21.6404 7.73257 22.3018 8.59635 22.3018H13.245C16.7263 22.3018 19.6973 19.8762 20.2696 16.5667Z" fill="#025FCA"/>
<path opacity="0.5" fill-rule="evenodd" clip-rule="evenodd" d="M2.96767 9.78684C3.36893 9.76953 3.71261 10.0714 3.74721 10.4715L4.71881 21.7081C4.78122 22.4298 4.21268 23.0519 3.48671 23.0519C2.80289 23.0519 2.25 22.4972 2.25 21.8147V10.5361C2.25 10.1345 2.5664 9.80416 2.96767 9.78684Z" fill="#025FCA"/>
</svg>
