<svg width="24" height="25" viewBox="0 0 24 25" fill="none" xmlns="http://www.w3.org/2000/svg">
<path opacity="0.5" d="M17.625 20.8934C18.2666 20.349 19.2334 20.349 19.875 20.8934C20.3109 21.2633 21 20.9679 21 20.4112V4.19235C21 3.63558 20.3109 3.34018 19.875 3.71007C19.2334 4.25449 18.2666 4.25449 17.625 3.71007C16.9834 3.16565 16.0166 3.16565 15.375 3.71007C14.7334 4.25449 13.7666 4.25449 13.125 3.71007C12.4834 3.16565 11.5166 3.16565 10.875 3.71007C10.2334 4.25449 9.26659 4.25449 8.625 3.71007C7.98341 3.16565 7.01659 3.16565 6.375 3.71007C5.73341 4.25449 4.76659 4.25449 4.125 3.71007C3.68909 3.34018 3 3.63558 3 4.19235V20.4112C3 20.9679 3.68909 21.2633 4.125 20.8934C4.76659 20.349 5.73341 20.349 6.375 20.8934C7.01659 21.4379 7.98341 21.4379 8.625 20.8934C9.26659 20.349 10.2334 20.349 10.875 20.8934C11.5166 21.4379 12.4834 21.4379 13.125 20.8934C13.7666 20.349 14.7334 20.349 15.375 20.8934C16.0166 21.4379 16.9834 21.4379 17.625 20.8934Z" fill="#025FCA"/>
<path d="M6.75 15.8018C6.75 15.3875 7.08579 15.0518 7.5 15.0518H16.5C16.9142 15.0518 17.25 15.3875 17.25 15.8018C17.25 16.216 16.9142 16.5518 16.5 16.5518H7.5C7.08579 16.5518 6.75 16.216 6.75 15.8018Z" fill="#025FCA"/>
<path d="M6.75 12.3018C6.75 11.8875 7.08579 11.5518 7.5 11.5518H16.5C16.9142 11.5518 17.25 11.8875 17.25 12.3018C17.25 12.716 16.9142 13.0518 16.5 13.0518H7.5C7.08579 13.0518 6.75 12.716 6.75 12.3018Z" fill="#025FCA"/>
<path d="M6.75 8.80176C6.75 8.38754 7.08579 8.05176 7.5 8.05176H16.5C16.9142 8.05176 17.25 8.38754 17.25 8.80176C17.25 9.21597 16.9142 9.55176 16.5 9.55176H7.5C7.08579 9.55176 6.75 9.21597 6.75 8.80176Z" fill="#025FCA"/>
</svg>
