<svg width="24" height="25" viewBox="0 0 24 25" fill="none" xmlns="http://www.w3.org/2000/svg">
<path d="M8.42229 20.9199C10.1779 21.8412 11.0557 22.3019 12 22.3019V12.3019L2.63802 7.37451C2.62423 7.39666 2.6107 7.41903 2.5974 7.44161C2 8.45612 2 9.71854 2 12.2434V12.3604C2 14.8852 2 16.1476 2.5974 17.1621C3.19479 18.1766 4.27063 18.7412 6.42229 19.8704L8.42229 20.9199Z" fill="#E6F1FF"/>
<path opacity="0.7" d="M17.5774 4.73328L15.5774 3.68373C13.8218 2.76241 12.944 2.30176 11.9997 2.30176C11.0554 2.30176 10.1776 2.76241 8.42197 3.68372L6.42197 4.73328C4.31821 5.83728 3.24291 6.40157 2.6377 7.3744L11.9997 12.3018L21.3617 7.3744C20.7564 6.40157 19.6811 5.83728 17.5774 4.73328Z" fill="#E6F1FF"/>
<path opacity="0.5" d="M21.4026 7.44161C21.3893 7.41903 21.3758 7.39666 21.362 7.37451L12 12.3019V22.3019C12.9443 22.3019 13.8221 21.8412 15.5777 20.9199L17.5777 19.8704C19.7294 18.7412 20.8052 18.1766 21.4026 17.1621C22 16.1476 22 14.8852 22 12.3604V12.2434C22 9.71854 22 8.45612 21.4026 7.44161Z" fill="#E6F1FF"/>
<path d="M6.32334 4.78557C6.35617 4.76834 6.38926 4.75098 6.42261 4.73348L7.91614 3.94971L17.0169 8.95513L21.0406 6.94328C21.1783 7.0992 21.298 7.26351 21.4029 7.4417C21.5525 7.69572 21.6646 7.96528 21.7487 8.2663L17.7503 10.2655V13.302C17.7503 13.7162 17.4145 14.052 17.0003 14.052C16.5861 14.052 16.2503 13.7162 16.2503 13.302V11.0155L12.7503 12.7655V22.206C12.4934 22.27 12.2492 22.302 12.0003 22.302C11.7515 22.302 11.5072 22.27 11.2503 22.206V12.7655L2.25195 8.2663C2.33601 7.96528 2.44813 7.69572 2.59771 7.4417C2.70264 7.26351 2.82232 7.0992 2.96001 6.94328L12.0003 11.4634L15.3865 9.77033L6.32334 4.78557Z" fill="#E6F1FF"/>
</svg>
