<svg width="18" height="18" viewBox="0 0 18 18" fill="none" xmlns="http://www.w3.org/2000/svg">
<path fill-rule="evenodd" clip-rule="evenodd" d="M8.58333 1.29167C4.55626 1.29167 1.29167 4.55626 1.29167 8.58334C1.29167 12.6104 4.55626 15.875 8.58333 15.875C12.6104 15.875 15.875 12.6104 15.875 8.58334C15.875 4.55626 12.6104 1.29167 8.58333 1.29167ZM0.041666 8.58334C0.041666 3.8659 3.8659 0.0416679 8.58333 0.0416679C13.3008 0.0416679 17.125 3.8659 17.125 8.58334C17.125 10.7171 16.3426 12.6681 15.0491 14.1652L17.7753 16.8914C18.0194 17.1355 18.0194 17.5312 17.7753 17.7753C17.5312 18.0194 17.1355 18.0194 16.8914 17.7753L14.1652 15.0491C12.6681 16.3426 10.7171 17.125 8.58333 17.125C3.8659 17.125 0.041666 13.3008 0.041666 8.58334Z" fill="currentColor"/>
</svg>
