<svg width="24" height="25" viewBox="0 0 24 25" fill="none" xmlns="http://www.w3.org/2000/svg">
<path d="M18.4834 17.0691C17.8471 17.2212 17.1829 17.3018 16.5 17.3018C11.8056 17.3018 8 13.4962 8 8.80176C8 8.31829 8.04036 7.84424 8.11791 7.38281C8.08172 7.41762 8.04432 7.44968 8.00494 7.47957C7.72433 7.69259 7.37485 7.77167 6.67589 7.92981L6.03954 8.07379C3.57986 8.63032 2.35002 8.90858 2.05742 9.8495C1.76482 10.7904 2.60325 11.7708 4.2801 13.7317L4.71392 14.239C5.19042 14.7962 5.42868 15.0748 5.53586 15.4195C5.64305 15.7642 5.60703 16.1359 5.53498 16.8793L5.4694 17.5562C5.21588 20.1724 5.08912 21.4805 5.85515 22.062C6.62117 22.6435 7.77267 22.1133 10.0757 21.0529L10.6715 20.7786C11.3259 20.4773 11.6531 20.3266 12 20.3266C12.3469 20.3266 12.6741 20.4773 13.3285 20.7786L13.9243 21.0529C16.2273 22.1133 17.3788 22.6435 18.1449 22.062C18.9109 21.4805 18.7841 20.1724 18.5306 17.5562L18.4834 17.0691Z" fill="#025FCA"/>
<path opacity="0.5" d="M9.15316 5.71013L8.82547 6.29799C8.46553 6.94369 8.28555 7.26654 8.00494 7.47956C8.04432 7.44967 8.08172 7.41762 8.11791 7.38281C8.04037 7.84424 8 8.31829 8 8.80176C8 13.4962 11.8056 17.3018 16.5 17.3018C17.1829 17.3018 17.8471 17.2212 18.4834 17.0691L18.465 16.8793C18.393 16.1359 18.357 15.7641 18.4641 15.4195C18.5713 15.0748 18.8096 14.7962 19.2861 14.239L19.7199 13.7317C21.3967 11.7708 22.2352 10.7904 21.9426 9.84949C21.65 8.90858 20.4201 8.63031 17.9605 8.07379L17.3241 7.92981C16.6252 7.77166 16.2757 7.69258 15.9951 7.47956C15.7144 7.26654 15.5345 6.94369 15.1745 6.298L14.8468 5.71013C13.5802 3.43788 12.9469 2.30176 12 2.30176C11.0531 2.30176 10.4198 3.43789 9.15316 5.71013Z" fill="#025FCA"/>
</svg>
